<svg width="24" height="24" viewBox="0 0 24 24" fill="none" xmlns="http://www.w3.org/2000/svg">
<circle cx="12" cy="12" r="12" fill="#005EA2"/>
<path d="M11.9553 16.6351C13.8753 16.6351 15.4953 15.6301 15.4953 13.8601C15.4953 12.6301 14.7003 11.8501 13.6053 11.5351V11.4751C14.6253 11.0401 15.1953 10.3501 15.1953 9.36008C15.1953 7.69508 13.8753 6.75008 11.9103 6.75008C10.7403 6.75008 9.7803 7.21508 8.9103 7.96508L10.0203 9.31508C10.6203 8.79008 11.1303 8.47508 11.8053 8.47508C12.5553 8.47508 12.9753 8.86508 12.9753 9.52508C12.9753 10.2901 12.4353 10.8001 10.7253 10.8001V12.3601C12.7953 12.3601 13.2903 12.8851 13.2903 13.7251C13.2903 14.4451 12.6753 14.8501 11.7453 14.8501C10.9353 14.8501 10.2303 14.4451 9.6603 13.8901L8.6403 15.2851C9.3303 16.0951 10.4103 16.6351 11.9553 16.6351Z" fill="white"/>
</svg>
