<?xml version="1.0" encoding="utf-8"?>
<!-- Generator: Adobe Illustrator 15.1.0, SVG Export Plug-In . SVG Version: 6.00 Build 0)  -->
<!DOCTYPE svg PUBLIC "-//W3C//DTD SVG 1.1//EN" "http://www.w3.org/Graphics/SVG/1.1/DTD/svg11.dtd">
<svg version="1.1" id="flag-icons-ca" xmlns="http://www.w3.org/2000/svg" xmlns:xlink="http://www.w3.org/1999/xlink" x="0px"
	 y="0px" width="106.128px" height="75px" viewBox="-3.07 12.5 106.128 75" enable-background="new -3.07 12.5 106.128 75"
	 xml:space="preserve">
<path fill="#FFFFFF" d="M23.458,12.5h53.071v75H23.458V12.5z"/>
<path fill="#D52B1E" d="M-3.07,12.5h26.528v75H-3.07V12.5z M76.529,12.5h26.528v75H76.544L76.529,12.5z M31.412,48.74l-2.08,0.703
	l9.595,8.423c0.732,2.153-0.249,2.783-0.879,3.926l10.4-1.318l-0.249,10.474l2.168-0.059l-0.483-10.4l10.43,1.245
	c-0.645-1.362-1.216-2.08-0.63-4.248l9.58-7.983l-1.67-0.615c-1.377-1.055,0.586-5.083,0.879-7.632c0,0-5.581,1.919-5.947,0.908
	l-1.436-2.739l-5.083,5.596c-0.557,0.132-0.791-0.088-0.923-0.557l2.344-11.689l-3.721,2.095c-0.308,0.146-0.615,0.029-0.82-0.337
	l-3.589-7.178l-3.691,7.456c-0.278,0.264-0.557,0.293-0.791,0.117l-3.545-1.992l2.139,11.587c-0.176,0.469-0.586,0.586-1.055,0.337
	l-4.878-5.522c-0.63,1.025-1.055,2.681-1.904,3.062c-0.835,0.352-3.662-0.703-5.552-1.113c0.645,2.329,2.666,6.196,1.392,7.471
	V48.74z"/>
<rect x="23.458" y="12.5" fill="#DDDDDD" width="53.072" height="2"/>
<rect x="23.458" y="85.5" fill="#DDDDDD" width="53.072" height="2"/>
</svg>
