<?xml version="1.0" encoding="utf-8"?>
<!-- Generator: Adobe Illustrator 26.0.3, SVG Export Plug-In . SVG Version: 6.00 Build 0)  -->
<svg version="1.1" id="Light_on_Dark" xmlns="http://www.w3.org/2000/svg" xmlns:xlink="http://www.w3.org/1999/xlink" x="0px"
	 y="0px" viewBox="0 0 40 30" style="enable-background:new 0 0 40 30;" xml:space="preserve">
<style type="text/css">
	.st0{fill:#FFFFFF;}
	.st1{fill:none;stroke:#F15A24;stroke-width:1.0706;stroke-miterlimit:10;}
	.st2{fill:#ADADAD;}
	.st3{fill:#355E93;}
	.st4{fill:none;stroke:#F15A24;stroke-width:0.1085;stroke-miterlimit:10;}
</style>
<rect class="st3" width="40" height="30"/>
<g>
	<path class="st0" d="M4,23.4V6.6h4.3c1.5,0,2.6,0.2,3.4,0.6c0.8,0.4,1.4,0.9,1.7,1.7c0.3,0.8,0.5,1.8,0.5,3V18
		c0,1.3-0.2,2.3-0.5,3.1c-0.3,0.8-0.9,1.4-1.7,1.8c-0.8,0.4-1.9,0.6-3.4,0.6H4z M7.7,20.8h0.6c0.6,0,1-0.1,1.2-0.2
		c0.2-0.2,0.4-0.4,0.5-0.7c0.1-0.3,0.1-0.7,0.1-1.2v-7.3c0-0.5,0-0.9-0.1-1.2C9.9,9.7,9.7,9.5,9.5,9.4C9.2,9.2,8.8,9.2,8.3,9.2H7.7
		V20.8z"/>
	<path class="st0" d="M20.6,23.7c-1.1,0-1.9-0.2-2.6-0.6c-0.7-0.4-1.2-1-1.6-1.7c-0.4-0.8-0.6-1.8-0.6-3l3.2-0.5
		c0,0.7,0.1,1.3,0.2,1.7c0.1,0.4,0.3,0.8,0.5,1c0.2,0.2,0.5,0.3,0.8,0.3c0.4,0,0.6-0.1,0.8-0.4c0.1-0.3,0.2-0.5,0.2-0.8
		c0-0.7-0.2-1.3-0.5-1.8c-0.3-0.5-0.8-1-1.4-1.4l-1.5-1.3c-0.6-0.5-1.2-1.2-1.6-1.8s-0.7-1.5-0.7-2.5c0-1.4,0.4-2.5,1.3-3.3
		c0.8-0.8,2-1.1,3.4-1.1c0.9,0,1.6,0.2,2.2,0.5c0.5,0.3,1,0.7,1.2,1.2c0.3,0.5,0.5,1,0.6,1.6c0.1,0.5,0.2,1.1,0.2,1.6l-3.2,0.4
		c0-0.5,0-0.9-0.1-1.3c0-0.4-0.1-0.7-0.3-0.9c-0.2-0.2-0.4-0.3-0.7-0.3c-0.3,0-0.6,0.1-0.8,0.4c-0.2,0.3-0.2,0.6-0.2,0.9
		c0,0.6,0.1,1.1,0.4,1.5c0.3,0.4,0.7,0.8,1.2,1.2l1.4,1.2c0.7,0.6,1.4,1.3,1.9,2.1c0.5,0.8,0.8,1.8,0.8,2.9c0,0.8-0.2,1.5-0.5,2.2
		c-0.4,0.6-0.9,1.2-1.5,1.5C22.3,23.5,21.5,23.7,20.6,23.7z"/>
	<path class="st0" d="M26.9,23.4V6.6h2.6l3.4,8.1V6.6H36v16.8h-2.5L30,14.7v8.7H26.9z"/>
</g>
</svg>
