<?xml version="1.0" encoding="utf-8"?>
<!-- Generator: Adobe Illustrator 15.1.0, SVG Export Plug-In . SVG Version: 6.00 Build 0)  -->
<!DOCTYPE svg PUBLIC "-//W3C//DTD SVG 1.1//EN" "http://www.w3.org/Graphics/SVG/1.1/DTD/svg11.dtd">
<svg version="1.1" id="flag-icons-si" xmlns="http://www.w3.org/2000/svg" xmlns:xlink="http://www.w3.org/1999/xlink" x="0px"
	 y="0px" width="100px" height="75px" viewBox="0 12.5 100 75" enable-background="new 0 12.5 100 75" xml:space="preserve">
<g>
	<g transform="translate(14.1) scale(.9375)">
		<path fill="#FFFFFF" d="M-15.049,13.333H91.627v26.672H-15.049V13.333z"/>
		<path fill="#D50000" d="M-15.049,66.661H91.627v26.672H-15.049V66.661z"/>
		<path fill="#0000BF" d="M-15.049,40.005H91.627v26.656H-15.049V40.005z"/>
		<path fill="#D50000" d="M22.998,27.865c-0.625,9.625-1,14.906-2.453,17.344c-1.594,2.625-3.125,4.547-9.328,6.875
			c-6.188-2.328-7.719-4.25-9.312-6.875c-1.469-2.438-1.828-7.719-2.453-17.344l0.906-0.312c1.844-0.562,3.219-1.016,4.234-1.219
			c1.453-0.312,2.703-0.656,6.609-0.734c3.906,0.062,5.156,0.438,6.609,0.75c1,0.219,2.438,0.625,4.266,1.203L22.998,27.865z"/>
		<path fill="#0000BF" d="M22.091,27.552c-0.594,9.609-1.094,14.016-1.875,16.125c-1.5,3.625-3.875,5.609-9,7.5
			c-5.125-1.891-7.5-3.875-9.016-7.5c-0.781-2.125-1.25-6.516-1.844-16.141c1.812-0.562,3.219-1,4.234-1.203
			c1.453-0.312,2.703-0.672,6.609-0.734c3.906,0.062,5.156,0.422,6.609,0.734c1.446,0.329,2.875,0.731,4.281,1.203V27.552z"/>
		<path fill="#FFDF00" d="M11.216,30.49l0.234,0.578l1.094,0.156l-0.703,0.422l0.672,0.453l-0.984,0.156l-0.312,0.531l-0.312-0.547
			l-0.938-0.125l0.625-0.469l-0.656-0.422l1.047-0.156L11.216,30.49z"/>
		<path fill="#FFFFFF" d="M19.857,41.396l-0.609-0.469l-0.422-0.719l-0.844-0.734l-0.453-0.734l-0.844-0.766l-0.406-0.734
			L15.81,36.88l-0.281-0.297l-0.781,0.672l-0.406,0.734l-0.516,0.469l-0.578-0.453l-0.422-0.75l-1.609-2.859l-1.609,2.859
			l-0.422,0.75l-0.578,0.453L8.091,37.99l-0.422-0.734l-0.766-0.672l-0.297,0.281L6.154,37.24l-0.406,0.734L4.904,38.74
			l-0.453,0.734l-0.844,0.734l-0.422,0.719l-0.609,0.469c0.344,2.151,1.361,4.137,2.906,5.672c1.676,1.434,3.62,2.523,5.719,3.203
			c2.115-0.665,4.072-1.755,5.75-3.203C17.857,46.13,19.544,44.052,19.857,41.396z"/>
		<path fill="#FFDF00" d="M13.779,26.443l0.25,0.578l1.094,0.156l-0.719,0.422l0.688,0.453l-0.984,0.156l-0.312,0.531l-0.312-0.547
			l-0.938-0.125l0.625-0.469l-0.656-0.422l1.031-0.156l0.25-0.578H13.779z M8.623,26.443l0.25,0.578l1.094,0.141l-0.703,0.422
			l0.672,0.453l-0.984,0.156l-0.312,0.531l-0.312-0.531l-0.938-0.141l0.625-0.469l-0.656-0.422l1.047-0.156l0.234-0.578
			L8.623,26.443z"/>
		<path fill="#0000BF" d="M18.513,45.052h-1.156l-1.094-0.078l-1.297-0.625h-1.469l-1.266,0.625l-1.016,0.094l-1-0.094l-1.266-0.625
			H7.466l-1.312,0.625l-1.078,0.094l-1.188-0.016l-0.562-0.969l0.016-0.031l1.75,0.297l1.078-0.078l1.297-0.641h1.469l1.281,0.625
			l1,0.094l1.016-0.094l1.266-0.625h1.469l1.313,0.625l1.078,0.094l1.688-0.312l0.031,0.062l-0.578,0.953H18.513z M5.013,46.536
			l1.156-0.078l1.297-0.625h1.469l1.281,0.625l1,0.078l1-0.078l1.281-0.625h1.469l1.297,0.625l1.172,0.078l0.75-0.938h-0.016
			l-0.812,0.219l-1.078-0.078l-1.297-0.625h-1.469l-1.281,0.625l-1,0.094l-1.016-0.094l-1.266-0.625H7.466L6.154,45.74l-1.078,0.094
			L4.294,45.63v0.031l0.703,0.875H5.013z"/>
	</g>
</g>
<polygon fill="#D5D5D5" points="100.001,37.502 97.19,37.502 97.19,15.318 2.816,15.318 2.816,37.502 0,37.502 0,12.503 
	100.001,12.503 "/>
</svg>
