<?xml version="1.0" encoding="utf-8"?>
<!-- Generator: Adobe Illustrator 15.1.0, SVG Export Plug-In . SVG Version: 6.00 Build 0)  -->
<!DOCTYPE svg PUBLIC "-//W3C//DTD SVG 1.1//EN" "http://www.w3.org/Graphics/SVG/1.1/DTD/svg11.dtd">
<svg version="1.1" id="flag-icons-sk" xmlns="http://www.w3.org/2000/svg" xmlns:xlink="http://www.w3.org/1999/xlink" x="0px"
	 y="0px" width="100px" height="75px" viewBox="0 12.5 100 75" enable-background="new 0 12.5 100 75" xml:space="preserve">
<path fill="#EE1C25" d="M0,12.5h100v75H0V12.5z"/>
<path fill="#0B4EA2" d="M0,12.5h100v50H0V12.5z"/>
<path fill="#FFFFFF" d="M0,12.5h100v25H0V12.5z"/>
<path fill="#FFFFFF" d="M36.406,70.438c-6.719-3.234-16.344-9.672-16.344-22.375c0-12.719,0.625-18.5,0.625-18.5h31.453
	c0,0,0.609,5.781,0.609,18.5S43.125,67.188,36.406,70.438z"/>
<path fill="#EE1C25" d="M36.406,68.75c-6.172-2.969-15-8.875-15-20.531s0.562-16.969,0.562-16.969h28.875
	c0,0,0.547,5.312,0.547,16.969C51.406,59.891,42.578,65.781,36.406,68.75z"/>
<path fill="#FFFFFF" d="M37.719,45.156c1.672,0.031,4.938,0.094,7.828-0.875c0,0-0.062,1.047-0.062,2.25s0.078,2.25,0.078,2.25
	c-2.656-0.891-5.953-0.906-7.844-0.891v6.438h-2.625v-6.438c-1.875-0.016-5.172,0-7.828,0.891c0,0,0.078-1.047,0.078-2.25
	c0-1.219-0.078-2.25-0.078-2.25c2.891,0.969,6.156,0.906,7.812,0.875v-4.047c-1.516,0-3.703,0.062-6.188,0.891
	c0,0,0.078-1.031,0.078-2.25c0-1.203-0.078-2.25-0.078-2.25c2.484,0.828,4.672,0.906,6.188,0.891
	C35,35.828,34.25,32.609,34.25,32.609s1.547,0.109,2.156,0.109c0.625,0,2.156-0.109,2.156-0.109s-0.75,3.219-0.828,5.781
	c1.516,0.016,3.703-0.062,6.188-0.891c0,0-0.078,1.047-0.078,2.25c0,1.219,0.078,2.25,0.078,2.25
	c-2.002-0.646-4.1-0.947-6.203-0.891v4.062V45.156z"/>
<path fill="#0B4EA2" d="M36.406,53.641c-3.109,0-4.766,4.297-4.766,4.297s-0.938-2.031-3.469-2.031
	c-1.719,0-2.969,1.516-3.781,2.938c3.125,4.953,8.109,8.016,12.016,9.906c3.906-1.875,8.906-4.953,12.016-9.906
	c-0.812-1.406-2.062-2.938-3.781-2.938c-2.531,0-3.469,2.031-3.469,2.031S39.531,53.641,36.406,53.641z"/>
<polygon fill="#D5D5D5" points="100,37.5 97.189,37.5 97.189,15.316 2.816,15.316 2.816,37.5 0,37.5 0,12.5 100,12.5 "/>
</svg>
