<svg width="56" height="26" viewBox="0 0 56 26" fill="none" xmlns="http://www.w3.org/2000/svg">
<path d="M23.91 13.39C24.216 12.285 24.505 10.993 24.777 9.82H24.845C25.134 10.976 25.44 12.285 25.746 13.39L26.001 14.41H23.638L23.91 13.39ZM19.898 19H22.448L23.128 16.365H26.511L27.191 19H29.843L26.375 7.916H23.366L19.898 19ZM31.968 19H34.484V10.024H37.527V7.916H28.925V10.024H31.968V19ZM41.1756 13.39C41.4816 12.285 41.7706 10.993 42.0426 9.82H42.1106C42.3996 10.976 42.7056 12.285 43.0116 13.39L43.2666 14.41H40.9036L41.1756 13.39ZM37.1636 19H39.7136L40.3936 16.365H43.7766L44.4566 19H47.1086L43.6406 7.916H40.6316L37.1636 19ZM49.2336 19H51.7496V10.024H54.7926V7.916H46.1906V10.024H49.2336V19Z" fill="white"/>
<path fill-rule="evenodd" clip-rule="evenodd" d="M8.06192 5.00004C9.69192 5.02604 11.3009 5.41604 12.8919 5.82304C12.8919 5.82304 14.5759 6.37004 14.6659 7.83904C14.7009 9.52704 14.8279 11.254 14.5329 12.791C13.8489 16.35 11.0219 19.142 8.26192 20.993C8.26192 20.993 7.80792 21.061 7.36392 20.765C4.18192 18.586 1.40092 15.424 1.29692 11.518C1.27392 9.01204 0.694916 6.43004 3.33092 5.75604C4.88592 5.36804 6.45692 4.99104 8.06192 5.00004ZM7.86492 7.08204C6.33192 7.13404 3.33592 7.91104 3.32692 7.92504C3.29592 9.48004 3.15392 11.118 3.44592 12.503C3.98792 15.069 5.88192 17.126 7.95792 18.621C7.95792 18.621 8.94892 17.878 9.53792 17.298C9.81092 17.028 10.0749 16.75 10.3279 16.46C11.5649 15.041 12.5839 13.335 12.6359 11.477C12.6469 10.296 12.6369 9.11404 12.6369 7.93304C12.6369 7.72104 11.0029 7.48704 9.84792 7.28504C9.19092 7.17104 8.52792 7.07404 7.86492 7.08204Z" fill="white"/>
</svg>
