<svg width="16" height="16" viewBox="0 0 16 16" fill="none" xmlns="http://www.w3.org/2000/svg">
<path fill-rule="evenodd" clip-rule="evenodd" d="M16 16H14V12.775L10.081 11.994C9.455 11.869 9 11.314 9 10.675V9.242C9 8.765 9.236 8.321 9.631 8.055C9.919 7.86 11 6.595 11 5C11 3.147 9.442 2 8 2C6.551 2 5 3.206 5 5C5 6.596 6.081 7.859 6.371 8.056C6.766 8.324 7 8.767 7 9.242V10.675C7 11.315 6.545 11.869 5.917 11.994L2.001 12.777L2 16H0V12.779C0 11.828 0.677 11.003 1.609 10.816L5 10.139V9.516C4.235 8.839 3 7.136 3 5C3 1.912 5.595 0 8 0C10.757 0 13 2.243 13 5C13 7.134 11.766 8.837 11 9.516V10.139L14.396 10.818C15.325 11.005 16 11.828 16 12.775V16Z" fill="white"/>
</svg>
