<svg width="16" height="16" viewBox="0 0 16 16" fill="none" xmlns="http://www.w3.org/2000/svg">
<path fill-rule="evenodd" clip-rule="evenodd" d="M0 16V0H5.99991V2H1.99997V14H5.99991V16H0ZM10.2928 11.293C10.0978 11.488 9.99984 11.744 9.99984 12C9.99984 12.256 10.0978 12.512 10.2928 12.707C10.6838 13.098 11.3158 13.098 11.7068 12.707L15.7068 8.707C16.0977 8.316 16.0977 7.684 15.7068 7.293L11.7068 3.293C11.3158 2.902 10.6838 2.902 10.2928 3.293C9.90185 3.684 9.90185 4.316 10.2928 4.707L12.5858 7H3.99994V9H12.5858L10.2928 11.293Z" fill="white"/>
</svg>
