<svg height='100px' width='100px'  fill="#000000" xmlns="http://www.w3.org/2000/svg" viewBox="0 0 16 16" enable-background="new 0 0 16 16" x="0px" y="0px"><path d="M16 16h-2v-3.225l-3.919-.781c-.626-.125-1.081-.68-1.081-1.319v-1.433c0-.477.236-.921.631-1.187.288-.195 1.369-1.46 1.369-3.055 0-1.853-1.558-3-3-3-1.449 0-3 1.206-3 3 0 1.596 1.081 2.859 1.371 3.056.395.268.629.711.629 1.186v1.433c0 .64-.455 1.194-1.083 1.319l-3.916.783-.001 3.223h-2v-3.221c0-.951.677-1.776 1.609-1.963l3.391-.677v-.623c-.765-.677-2-2.38-2-4.516 0-3.088 2.595-5 5-5 2.757 0 5 2.243 5 5 0 2.134-1.234 3.837-2 4.516v.623l3.396.679c.929.187 1.604 1.01 1.604 1.957v3.225z"></path></svg>