<svg width="16" height="16" viewBox="0 0 16 16" fill="none" xmlns="http://www.w3.org/2000/svg">
<path fill-rule="evenodd" clip-rule="evenodd" d="M8 16C3.589 16 0 12.411 0 8C0 3.589 3.589 0 8 0C12.411 0 16 3.589 16 8C16 12.411 12.411 16 8 16ZM8 2C4.691 2 2 4.691 2 8C2 11.309 4.691 14 8 14C11.309 14 14 11.309 14 8C14 4.691 11.309 2 8 2ZM7.919 12.972C7.645 12.972 7.406 12.886 7.202 12.713C6.998 12.54 6.896 12.298 6.896 11.987C6.896 11.711 6.995 11.479 7.192 11.291C7.39 11.103 7.632 11.008 7.919 11.008C8.202 11.008 8.44 11.103 8.633 11.291C8.826 11.479 8.922 11.711 8.922 11.987C8.922 12.294 8.821 12.535 8.619 12.71C8.417 12.885 8.184 12.972 7.919 12.972ZM4.634 5.773C4.634 5.357 4.771 4.936 5.045 4.509C5.319 4.082 5.718 3.728 6.243 3.448C6.768 3.168 7.381 3.028 8.081 3.028C8.732 3.028 9.306 3.145 9.804 3.379C10.302 3.613 10.687 3.932 10.959 4.335C11.23 4.738 11.366 5.176 11.366 5.648C11.366 6.021 11.288 6.347 11.134 6.627C10.979 6.907 10.795 7.149 10.582 7.353C10.368 7.557 9.986 7.899 9.434 8.381C9.281 8.517 9.159 8.636 9.067 8.739C8.975 8.842 8.907 8.936 8.862 9.021C8.817 9.107 8.782 9.192 8.757 9.278C8.733 9.363 8.696 9.513 8.646 9.728C8.561 10.183 8.294 10.411 7.845 10.411C7.612 10.411 7.415 10.336 7.256 10.187C7.097 10.038 7.017 9.817 7.017 9.524C7.017 9.156 7.076 8.837 7.192 8.568C7.309 8.299 7.464 8.062 7.657 7.859C7.85 7.655 8.11 7.413 8.438 7.133C8.725 6.888 8.932 6.703 9.06 6.578C9.188 6.453 9.296 6.314 9.383 6.161C9.471 6.008 9.515 5.841 9.515 5.662C9.515 5.311 9.381 5.016 9.114 4.775C8.847 4.534 8.503 4.414 8.081 4.414C7.587 4.414 7.224 4.535 6.99 4.778C6.757 5.021 6.559 5.379 6.398 5.852C6.245 6.347 5.956 6.594 5.529 6.594C5.278 6.594 5.066 6.508 4.893 6.335C4.72 6.162 4.634 5.975 4.634 5.773Z" fill="white"/>
</svg>
