<svg viewBox="0 0 16 16" xmlns="http://www.w3.org/2000/svg" fill-rule="evenodd" clip-rule="evenodd" stroke-linejoin="round" stroke-miterlimit="1.414"><path d="M8.062 0c1.63.026 3.239.416 4.83.823 0 0 1.684.547 1.774 2.016.035 1.688.162 3.415-.133 4.952-.684 3.559-3.511 6.351-6.271 8.202 0 0-.454.068-.898-.228-3.182-2.179-5.963-5.341-6.067-9.247C1.274 4.012.695 1.43 3.331.756 4.886.368 6.457-.009 8.062 0zm-.197 2.082c-1.533.052-4.529.829-4.538.843-.031 1.555-.173 3.193.119 4.578.542 2.566 2.436 4.623 4.512 6.118 0 0 .991-.743 1.58-1.323.273-.27.537-.548.79-.838 1.237-1.419 2.256-3.125 2.308-4.983.011-1.181.001-2.363.001-3.544 0-.212-1.634-.446-2.789-.648-.657-.114-1.32-.211-1.983-.203z" fill-rule="nonzero"/></svg>
