<svg width="12" height="12" viewBox="0 0 12 12" fill="none" xmlns="http://www.w3.org/2000/svg">
<path fill-rule="evenodd" clip-rule="evenodd" d="M6.71254 11.8063L11.8169 6.46714C12.061 6.20883 12.061 5.79117 11.8169 5.53286L6.71254 0.193734C6.46836 -0.0645779 6.06925 -0.0645779 5.82245 0.193734L5.22642 0.817508C4.98223 1.07579 4.98223 1.49074 5.22642 1.74902L9.26996 6L5.22642 10.251C4.97959 10.5093 4.97959 10.9242 5.22642 11.1825L5.82245 11.8063C6.06663 12.0646 6.46574 12.0646 6.71254 11.8063ZM1.67124 11.8063L6.77556 6.46714C7.01975 6.20883 7.01975 5.79117 6.77556 5.53286L1.67124 0.193734C1.42444 -0.0645779 1.02533 -0.0645779 0.781151 0.193734L0.185118 0.817508C-0.061706 1.07579 -0.061706 1.49074 0.185118 1.74902L4.22866 6L0.185118 10.251C-0.0590649 10.5093 -0.0590649 10.9242 0.185118 11.1825L0.781151 11.8063C1.02795 12.0646 1.42706 12.0646 1.67124 11.8063Z" fill="#005EA2"/>
</svg>
