<svg width="12" height="12" viewBox="0 0 12 12" fill="none" xmlns="http://www.w3.org/2000/svg">
<path fill-rule="evenodd" clip-rule="evenodd" d="M5.28746 11.8063L0.183138 6.46714C-0.0610456 6.20883 -0.0610456 5.79117 0.183138 5.53286L5.28746 0.193734C5.53164 -0.0645779 5.93075 -0.0645779 6.17755 0.193734L6.77358 0.817508C7.01777 1.07579 7.01777 1.49074 6.77358 1.74902L2.73004 6L6.77358 10.251C7.02041 10.5093 7.02041 10.9242 6.77358 11.1825L6.17755 11.8063C5.93337 12.0646 5.53426 12.0646 5.28746 11.8063ZM10.3288 11.8063L5.22444 6.46714C4.98025 6.20883 4.98025 5.79117 5.22444 5.53286L10.3288 0.193734C10.5756 -0.0645779 10.9747 -0.0645779 11.2188 0.193734L11.8149 0.817508C12.0617 1.07579 12.0617 1.49074 11.8149 1.74902L7.77134 6L11.8149 10.251C12.0591 10.5093 12.0591 10.9242 11.8149 11.1825L11.2188 11.8063C10.9721 12.0646 10.5729 12.0646 10.3288 11.8063Z" fill="#005EA2"/>
</svg>
