<?xml version="1.0" encoding="utf-8"?>
<!-- Generator: Adobe Illustrator 26.4.1, SVG Export Plug-In . SVG Version: 6.00 Build 0)  -->
<svg version="1.1" id="Layer_1" xmlns="http://www.w3.org/2000/svg" xmlns:xlink="http://www.w3.org/1999/xlink" x="0px" y="0px"
	 viewBox="0 0 40 40" style="enable-background:new 0 0 40 40;" xml:space="preserve">
<style type="text/css">
	.st0{fill:#FFFFFF;}
	.st1{fill:#C74634;}
</style>
<path class="st0" d="M12.6,32.2C5.6,32.2,0,26.6,0,19.6C0,12.6,5.6,7,12.6,7h14.8c7,0,12.6,5.6,12.6,12.6c0,7-5.6,12.6-12.6,12.6
	H12.6z"/>
<path class="st1" d="M12.6,32.2C5.6,32.2,0,26.6,0,19.6C0,12.6,5.6,7,12.6,7h14.8c7,0,12.6,5.6,12.6,12.6c0,7-5.6,12.6-12.6,12.6
	H12.6z M27,27.8c4.6,0,8.2-3.7,8.2-8.2c0-4.6-3.7-8.2-8.2-8.2H13c-4.6,0-8.2,3.7-8.2,8.2s3.7,8.2,8.2,8.2H27z"/>
</svg>
